<svg width="30" height="30" viewBox="0 0 30 30" fill="none" xmlns="http://www.w3.org/2000/svg">
<g clip-path="url(#clip0_7_47)">
<path d="M21.2375 3.12501V2.67501C21.2375 2.43334 21.1833 2.21667 21.075 2.02501C20.9667 1.83334 20.8167 1.68334 20.625 1.57501C20.4333 1.46667 20.2292 1.41251 20.0125 1.41251C19.7875 1.41251 19.575 1.46667 19.375 1.57501C19.175 1.68334 19.0208 1.83334 18.9125 2.02501C18.8042 2.21667 18.75 2.43334 18.75 2.67501V3.12501H11.275V2.67501C11.275 2.43334 11.2208 2.21667 11.1125 2.02501C11.0042 1.83334 10.85 1.68334 10.65 1.57501C10.45 1.46667 10.2417 1.41251 10.025 1.41251C9.8 1.41251 9.5875 1.46667 9.3875 1.57501C9.1875 1.68334 9.03334 1.83334 8.925 2.02501C8.81667 2.21667 8.7625 2.43334 8.7625 2.67501V3.12501H6.2375C5.5625 3.12501 4.9375 3.29167 4.3625 3.62501C3.79584 3.96667 3.34167 4.42917 3 5.01251C2.65834 5.58751 2.4875 6.20834 2.4875 6.87501V23.7625C2.4875 24.4375 2.65834 25.0625 3 25.6375C3.34167 26.2042 3.79584 26.6583 4.3625 27C4.9375 27.3417 5.5625 27.5125 6.2375 27.5125H23.7625C24.4375 27.5125 25.0625 27.3417 25.6375 27C26.2042 26.6583 26.6583 26.2042 27 25.6375C27.3417 25.0625 27.5125 24.4375 27.5125 23.7625V6.87501C27.5125 6.19167 27.3417 5.56667 27 5.00001C26.6583 4.42501 26.2042 3.96667 25.6375 3.62501C25.0625 3.29167 24.4375 3.12501 23.7625 3.12501H21.2375ZM8.7625 5.01251V5.25001C8.7625 5.60834 8.8875 5.90834 9.1375 6.15001C9.3875 6.39167 9.68334 6.51251 10.025 6.51251C10.3583 6.51251 10.65 6.39167 10.9 6.15001C11.15 5.90834 11.275 5.60834 11.275 5.25001V5.01251H18.75V5.25001C18.75 5.60834 18.8708 5.90834 19.1125 6.15001C19.3542 6.39167 19.6417 6.51251 19.975 6.51251C20.3167 6.51251 20.6125 6.39167 20.8625 6.15001C21.1125 5.90834 21.2375 5.60834 21.2375 5.25001V5.01251H23.725C24.25 5.01251 24.6958 5.19584 25.0625 5.56251C25.4375 5.93751 25.625 6.37501 25.625 6.87501V9.62501H4.375V6.87501C4.375 6.35001 4.5625 5.90834 4.9375 5.55001C5.30417 5.19167 5.7375 5.01251 6.2375 5.01251H8.7625ZM6.2375 25.65C5.72084 25.65 5.28334 25.4667 4.925 25.1C4.55834 24.725 4.375 24.2792 4.375 23.7625V11.525H25.625V23.7625C25.625 24.2792 25.4417 24.725 25.075 25.1C24.7167 25.4667 24.2792 25.65 23.7625 25.65H6.2375ZM8.1 16.675C8.44167 16.675 8.7375 16.55 8.9875 16.3C9.2375 16.05 9.3625 15.7583 9.3625 15.425C9.3625 15.0833 9.2375 14.7875 8.9875 14.5375C8.7375 14.2875 8.44167 14.1625 8.1 14.1625C7.75834 14.1625 7.4625 14.2875 7.2125 14.5375C6.9625 14.7875 6.8375 15.0833 6.8375 15.425C6.8375 15.7583 6.9625 16.05 7.2125 16.3C7.4625 16.55 7.75834 16.675 8.1 16.675ZM12.75 16.675C13.0917 16.675 13.3875 16.55 13.6375 16.3C13.8875 16.05 14.0125 15.7583 14.0125 15.425C14.0125 15.0833 13.8875 14.7875 13.6375 14.5375C13.3875 14.2875 13.0917 14.1625 12.75 14.1625C12.4083 14.1625 12.1125 14.2875 11.8625 14.5375C11.6125 14.7875 11.4875 15.0833 11.4875 15.425C11.4875 15.7583 11.6125 16.05 11.8625 16.3C12.1125 16.55 12.4083 16.675 12.75 16.675ZM17.425 16.675C17.7667 16.675 18.0625 16.55 18.3125 16.3C18.5625 16.05 18.6875 15.7583 18.6875 15.425C18.6875 15.0833 18.5625 14.7875 18.3125 14.5375C18.0625 14.2875 17.7667 14.1625 17.425 14.1625C17.0917 14.1625 16.8 14.2875 16.55 14.5375C16.3 14.7875 16.175 15.0833 16.175 15.425C16.175 15.7583 16.3 16.05 16.55 16.3C16.8 16.55 17.0917 16.675 17.425 16.675ZM22.075 16.675C22.4167 16.675 22.7125 16.55 22.9625 16.3C23.2125 16.05 23.3375 15.7583 23.3375 15.425C23.3375 15.0833 23.2125 14.7875 22.9625 14.5375C22.7125 14.2875 22.4167 14.1625 22.075 14.1625C21.7417 14.1625 21.45 14.2875 21.2 14.5375C20.95 14.7875 20.825 15.0833 20.825 15.425C20.825 15.7583 20.95 16.05 21.2 16.3C21.45 16.55 21.7417 16.675 22.075 16.675ZM8.1 21.6875C8.44167 21.6875 8.7375 21.5625 8.9875 21.3125C9.2375 21.0625 9.3625 20.7667 9.3625 20.425C9.3625 20.0917 9.2375 19.8 8.9875 19.55C8.7375 19.3 8.44167 19.175 8.1 19.175C7.75834 19.175 7.4625 19.3 7.2125 19.55C6.9625 19.8 6.8375 20.0917 6.8375 20.425C6.8375 20.7667 6.9625 21.0625 7.2125 21.3125C7.4625 21.5625 7.75834 21.6875 8.1 21.6875ZM12.75 21.6875C13.0917 21.6875 13.3875 21.5625 13.6375 21.3125C13.8875 21.0625 14.0125 20.7667 14.0125 20.425C14.0125 20.0917 13.8875 19.8 13.6375 19.55C13.3875 19.3 13.0917 19.175 12.75 19.175C12.4083 19.175 12.1125 19.3 11.8625 19.55C11.6125 19.8 11.4875 20.0917 11.4875 20.425C11.4875 20.7667 11.6125 21.0625 11.8625 21.3125C12.1125 21.5625 12.4083 21.6875 12.75 21.6875Z" fill="white"/>
</g>
<defs>
<clipPath id="clip0_7_47">
<rect width="30" height="30" fill="white"/>
</clipPath>
</defs>
</svg>
