<svg width="30" height="30" viewBox="0 0 30 30" fill="none" xmlns="http://www.w3.org/2000/svg">
<g clip-path="url(#clip0_12_234)">
<path d="M15 1.5625C12.5583 1.5625 10.3083 2.16667 8.25 3.375C6.19167 4.58333 4.5625 6.2125 3.3625 8.2625C2.1625 10.3125 1.5625 12.5583 1.5625 15C1.5625 17.4417 2.1625 19.6875 3.3625 21.7375C4.5625 23.7875 6.19167 25.4167 8.25 26.625C10.3083 27.8333 12.5583 28.4375 15 28.4375C17.4167 28.4375 19.6583 27.8333 21.725 26.625C23.7833 25.4167 25.4167 23.7833 26.625 21.725C27.8333 19.6583 28.4375 17.4167 28.4375 15C28.4375 12.5833 27.8333 10.3417 26.625 8.275C25.4167 6.21667 23.7833 4.58333 21.725 3.375C19.6583 2.16667 17.4167 1.5625 15 1.5625ZM15 26.55C12.9167 26.55 10.9917 26.0333 9.225 25C7.45833 23.975 6.05417 22.575 5.0125 20.8C3.97083 19.0333 3.45 17.1 3.45 15C3.45 12.9167 3.97083 10.9917 5.0125 9.225C6.05417 7.45833 7.45833 6.05417 9.225 5.0125C10.9917 3.97083 12.9167 3.45 15 3.45C17.1 3.45 19.0333 3.97083 20.8 5.0125C22.575 6.05417 23.975 7.45833 25 9.225C26.0333 10.9917 26.55 12.9167 26.55 15C26.55 17.1 26.0333 19.0333 25 20.8C23.975 22.575 22.575 23.975 20.8 25C19.0333 26.0333 17.1 26.55 15 26.55Z" fill="white"/>
<path d="M15.925 7.19999C15.925 6.94166 15.8375 6.71665 15.6625 6.52499C15.4792 6.33332 15.2583 6.23749 15 6.23749C14.7417 6.23749 14.5208 6.33332 14.3375 6.52499C14.1625 6.71665 14.075 6.94166 14.075 7.19999V14.975C14.075 15.2333 14.1333 15.4333 14.25 15.575L14.3375 15.6625L20.7875 22.1375C20.9708 22.3208 21.1917 22.4125 21.45 22.4125C21.7083 22.4125 21.9292 22.3208 22.1125 22.1375C22.2875 21.9375 22.375 21.7083 22.375 21.45C22.375 21.1917 22.2875 20.9708 22.1125 20.7875L15.925 14.6125V7.19999Z" fill="white"/>
</g>
<defs>
<clipPath id="clip0_12_234">
<rect width="30" height="30" fill="white"/>
</clipPath>
</defs>
</svg>
