<svg width="30" height="30" viewBox="0 0 30 30" fill="none" xmlns="http://www.w3.org/2000/svg">
<path fill-rule="evenodd" clip-rule="evenodd" d="M19.9608 28.2138C19.8108 29.2094 18.8811 30 17.7714 30H12.2231C11.1134 30 10.1837 29.2094 10.0488 28.1406L9.64389 25.3734C9.23901 25.1684 8.84913 24.9488 8.45925 24.6999L5.76007 25.754C4.71039 26.1347 3.55574 25.7101 3.04589 24.8023L0.301725 20.1611C-0.223116 19.1947 0.00181575 18.0527 0.841561 17.4085L3.13586 15.6662C3.12087 15.4466 3.10587 15.2269 3.10587 14.9927C3.10587 14.7731 3.12087 14.5388 3.13586 14.3192L0.856556 12.5769C-0.0281751 11.918 -0.253107 10.7321 0.301725 9.8243L3.07588 5.15373C3.58573 4.24597 4.74038 3.83602 5.76007 4.23133L8.47424 5.30015C8.86413 5.05124 9.25401 4.83163 9.64389 4.62665L10.0488 1.83016C10.1837 0.805271 11.1134 0 12.2081 0H17.7564C18.8661 0 19.7958 0.79063 19.9308 1.85944L20.3356 4.62665C20.7405 4.83163 21.1304 5.05124 21.5203 5.30015L24.2195 4.24597C25.2841 3.8653 26.4388 4.2899 26.9486 5.19766L29.7078 9.85359C30.2476 10.8199 30.0077 11.9619 29.168 12.6061L26.8887 14.3485C26.9037 14.5681 26.9186 14.7877 26.9186 15.022C26.9186 15.2562 26.9037 15.4758 26.8887 15.6955L29.168 17.4378C30.0077 18.0966 30.2476 19.2387 29.7228 20.1611L26.9336 24.8755C26.4238 25.7833 25.2691 26.1933 24.2345 25.798L21.5353 24.7438C21.1454 24.9927 20.7555 25.2123 20.3656 25.4173L19.9608 28.2138ZM12.9279 27.0717H17.0666L17.6215 23.3382L18.4162 23.0161C19.076 22.7526 19.7358 22.3719 20.4256 21.8741L21.1004 21.3763L24.6693 22.7818L26.7387 19.2679L23.6946 16.9546L23.7996 16.1347L23.8043 16.0953C23.8476 15.7287 23.8896 15.3743 23.8896 14.9927C23.8896 14.5974 23.8446 14.2167 23.7996 13.8507L23.6946 13.0307L26.7387 10.7174L24.6543 7.20351L21.0704 8.60908L20.3956 8.09663C19.7658 7.62811 19.091 7.24744 18.4012 6.96925L17.6215 6.64714L17.0666 2.91362H12.9279L12.3731 6.64714L11.5783 6.95461C10.9185 7.2328 10.2587 7.59883 9.56891 8.11127L8.89412 8.59444L5.3252 7.20351L3.24083 10.7028L6.28491 13.0161L6.17994 13.836C6.13495 14.2167 6.08997 14.612 6.08997 14.9927C6.08997 15.3734 6.11996 15.7687 6.17994 16.1347L6.28491 16.9546L3.24083 19.2679L5.3102 22.7818L8.89412 21.3763L9.56891 21.8887C10.2137 22.3719 10.8585 22.7379 11.5633 23.0161L12.3581 23.3382L12.9279 27.0717ZM20.2457 14.9927C20.2457 17.8228 17.8959 20.1171 14.9973 20.1171C12.0987 20.1171 9.74886 17.8228 9.74886 14.9927C9.74886 12.1625 12.0987 9.86823 14.9973 9.86823C17.8959 9.86823 20.2457 12.1625 20.2457 14.9927Z" fill="white"/>
</svg>
