<svg width="30" height="30" viewBox="0 0 30 30" fill="none" xmlns="http://www.w3.org/2000/svg">
<path d="M15 13.6456C13.8713 13.6456 12.912 13.2506 12.1219 12.4605C11.3318 11.6704 10.9368 10.7111 10.9368 9.58239C10.9368 8.45372 11.3318 7.49436 12.1219 6.70429C12.912 5.91422 13.8713 5.51919 15 5.51919C16.1287 5.51919 17.088 5.91422 17.8781 6.70429C18.6682 7.49436 19.0632 8.45372 19.0632 9.58239C19.0632 10.7111 18.6682 11.6704 17.8781 12.4605C17.088 13.2506 16.1287 13.6456 15 13.6456ZM15 10.9368C15.3837 10.9368 15.7056 10.8068 15.9657 10.5467C16.2248 10.2876 16.3544 9.96614 16.3544 9.58239C16.3544 9.19864 16.2248 8.87675 15.9657 8.6167C15.7056 8.35756 15.3837 8.22799 15 8.22799C14.6163 8.22799 14.2948 8.35756 14.0357 8.6167C13.7756 8.87675 13.6456 9.19864 13.6456 9.58239C13.6456 9.96614 13.7756 10.2876 14.0357 10.5467C14.2948 10.8068 14.6163 10.9368 15 10.9368ZM6.87359 21.772V19.1986C6.87359 18.7246 6.99232 18.2786 7.2298 17.8605C7.46636 17.4433 7.78781 17.1106 8.19413 16.8623C9.20993 16.2754 10.2822 15.8185 11.4108 15.4916C12.5395 15.1639 13.7359 15 15 15C16.2641 15 17.4605 15.1639 18.5892 15.4916C19.7178 15.8185 20.7901 16.2754 21.8059 16.8623C22.2122 17.1106 22.5341 17.4433 22.7716 17.8605C23.0081 18.2786 23.1264 18.7246 23.1264 19.1986V21.772H6.87359ZM15 17.7088C14.0745 17.7088 13.1716 17.8217 12.2912 18.0474C11.4108 18.2731 10.5756 18.6117 9.78555 19.0632H20.2144C19.4244 18.6117 18.5892 18.2731 17.7088 18.0474C16.8284 17.8217 15.9255 17.7088 15 17.7088ZM27.4944 9.78555C26.7946 8.1377 25.8181 6.68713 24.5648 5.43386C23.3124 4.18149 21.8623 3.20542 20.2144 2.50564L21.2641 0C23.2506 0.812641 24.9946 1.97517 26.4962 3.48758C27.9968 5 29.1648 6.74943 30 8.73589L27.4944 9.78555ZM2.50564 9.78555L0 8.73589C0.835214 6.74943 2.00361 5.00542 3.50519 3.50384C5.00587 2.00316 6.74943 0.835214 8.73589 0L9.78555 2.50564C8.1377 3.20542 6.68758 4.18149 5.43521 5.43386C4.18194 6.68713 3.20542 8.1377 2.50564 9.78555ZM8.73589 30C6.74943 29.1874 5.00587 28.0248 3.50519 26.5124C2.00361 25 0.835214 23.2506 0 21.2641L2.50564 20.2144C3.20542 21.8623 4.18194 23.3124 5.43521 24.5648C6.68758 25.8181 8.1377 26.7946 9.78555 27.4944L8.73589 30ZM21.2641 30L20.2144 27.4944C21.8623 26.7946 23.3124 25.8181 24.5648 24.5648C25.8181 23.3124 26.7946 21.8623 27.4944 20.2144L30 21.2641C29.1874 23.2506 28.0248 24.9941 26.5124 26.4948C25 27.9964 23.2506 29.1648 21.2641 30ZM15 19.0632C15.9255 19.0632 16.8284 19.0632 17.7088 19.0632C18.5892 19.0632 19.4244 19.0632 20.2144 19.0632H9.78555C10.5756 19.0632 11.4108 19.0632 12.2912 19.0632C13.1716 19.0632 14.0745 19.0632 15 19.0632Z" fill="#E6E6E6"/>
</svg>
