<svg width="30" height="30" viewBox="0 0 30 30" fill="none" xmlns="http://www.w3.org/2000/svg">
<path d="M18.3951 5.72571C17.6255 5.72571 16.9637 5.44549 16.4096 4.88503C15.8547 4.32549 15.5772 3.65714 15.5772 2.88C15.5772 2.08 15.8547 1.39977 16.4096 0.839314C16.9637 0.279771 17.6255 0 18.3951 0C19.1872 0 19.8608 0.279771 20.4158 0.839314C20.9699 1.39977 21.2469 2.08 21.2469 2.88C21.2469 3.65714 20.9699 4.32549 20.4158 4.88503C19.8608 5.44549 19.1872 5.72571 18.3951 5.72571ZM17.5802 30V21.7029L14.9321 19.1314L13.608 25.0629L4 23.1086L4.57716 20.1257L11.0957 21.4971L13.2006 10.7314L10.9599 11.5886V16.2857H8.00617V9.63429L13.5401 7.26857C14.3323 6.92571 14.9208 6.70263 15.3056 6.59931C15.6903 6.49691 16.0412 6.44571 16.358 6.44571C16.856 6.44571 17.3145 6.57737 17.7337 6.84069C18.152 7.10309 18.4969 7.45143 18.7685 7.88571L20.1265 10.08C20.715 11.0171 21.5131 11.7883 22.5207 12.3936C23.5275 12.9998 24.6872 13.3029 26 13.3029V16.2857C24.4835 16.2857 23.0748 15.9831 21.7738 15.3778C20.4719 14.7717 19.3683 13.9771 18.463 12.9943L17.716 16.8L20.5679 19.5429V30H17.5802Z" fill="white"/>
</svg>
